Coordinates
version=1
nRows=9
nColumns=36
inDegrees=yes

Units are S.I. units (second, meters, Newtons, ...)
If the header above contains a line with 'inDegrees', this indicates whether rotational values are in degrees (yes) or radians (no).

endheader
time	pelvis_tilt	pelvis_list	pelvis_rotation	pelvis_tx	pelvis_ty	pelvis_tz	hip_flexion_r	hip_adduction_r	hip_rotation_r	knee_angle_r	knee_angle_r_beta	ankle_angle_r	subtalar_angle_r	mtp_angle_r	hip_flexion_l	hip_adduction_l	hip_rotation_l	knee_angle_l	knee_angle_l_beta	ankle_angle_l	subtalar_angle_l	mtp_angle_l	lumbar_extension	lumbar_bending	lumbar_rotation	arm_flex_r	arm_add_r	arm_rot_r	elbow_flex_r	pro_sup_r	arm_flex_l	arm_add_l	arm_rot_l	elbow_flex_l	pro_sup_l
      2.68333330	     -6.88070255	      2.53557922	     -1.22312399	      0.21030662	      1.41909111	     -0.02417865	     24.91879498	     -3.89757373	    -12.24103078	      0.21226233	      0.00370468	    -48.65702519	     -2.00170847	     -7.49999987	     26.77472935	      1.33096164	    -13.23418505	      4.32248505	      0.07544160	    -34.86417347	     -5.48712444	     -7.49999987	    -26.44835705	      1.76746059	      1.16297048	      5.58415750	    -10.90556366	     -2.37187494	     28.75471319	     91.94414021	     11.85994974	    -15.63718414	    -18.09912936	     28.20187824	     75.49475830
      2.70000000	     -6.62703867	      2.33622935	     -1.68564056	      0.20911325	      1.41873838	     -0.02409183	     25.46168365	     -3.51174286	    -12.45977199	      0.19487392	      0.00340119	    -48.29448365	     -3.61835758	     -7.49999987	     26.61558232	      1.01534355	    -13.67976076	      3.72520293	      0.06501706	    -35.28576402	     -6.12486004	     -7.49999987	    -27.92394871	      1.83670351	      1.04955788	      5.53931602	    -10.27663713	     -1.99365231	     28.10845163	     89.76594814	     10.38823631	    -13.73937070	    -18.85892585	     28.29063859	     74.55999219
      2.71666670	     -6.75854017	      2.31160305	     -2.01565598	      0.20418421	      1.41652827	     -0.01891894	     26.31451964	     -3.18322459	    -12.38553996	      0.19646873	      0.00342903	    -48.10447329	     -5.14248056	     -7.49999987	     26.77259687	      0.58404520	    -13.34984767	      3.53985525	      0.06178213	    -35.67694919	     -4.85038454	     -7.49999987	    -28.90446630	      1.58895001	     -0.24445362	      7.33807539	     -9.74444117	      2.30821989	     24.95337411	     92.39950096	      8.65753754	    -12.46718047	    -20.83022516	     28.63928764	     77.75233911
      2.73333330	     -6.43200906	      2.11184936	     -2.45685262	      0.20836036	      1.40535903	     -0.02332412	     26.21317641	     -2.77931881	    -12.39197848	      0.21266563	      0.00371172	    -47.56647879	     -6.79130199	     -7.49999987	     26.05123502	      0.15172897	    -13.21133618	      3.35795150	      0.05860731	    -34.98174253	     -4.71299493	     -7.49999987	    -29.83913494	      1.68270196	     -0.24848054	      7.15364860	     -9.37596734	      3.56035922	     23.47739716	     89.74357069	      7.11739326	    -11.70478770	    -20.26857055	     29.23094817	     77.44409995
      2.75000000	     -6.26860898	      2.28617577	     -2.61103447	      0.20769424	      1.38482537	     -0.02332657	     25.88094298	     -2.84521290	    -11.28151463	      0.26727505	      0.00466483	    -46.46548852	     -8.18021103	     -7.49999987	     25.76600121	      0.11892437	    -13.07065734	      3.78741087	      0.06610279	    -34.21739069	     -5.49467307	     -7.49999987	    -30.08480613	      1.36827352	     -1.02297673	      6.40521833	     -8.70991589	      2.41280841	     24.06338578	     90.17433785	      4.60364920	    -10.67344087	    -23.91726736	     32.51629759	     79.33139357
      2.76666670	     -6.29048085	      2.33070247	     -3.31951280	      0.20774307	      1.36949535	     -0.02275208	     25.66607559	     -2.44609308	     -9.65092805	      0.35500694	      0.00619604	    -45.98808564	     -9.29168594	     -7.49999987	     25.35951412	     -0.20808659	    -12.96554850	      4.00875508	      0.06996598	    -33.80689445	     -5.57867244	     -7.49999987	    -29.36027648	      1.09830388	     -1.65234081	      4.69956241	     -8.41323298	     -1.19188406	     25.82347350	     88.08087608	      2.23364436	     -9.66984236	    -27.78346084	     34.55917855	     78.97527838
      2.78333330	     -6.29728489	      2.86376791	     -3.90837878	      0.21314954	      1.35340666	     -0.02613682	     25.32020397	     -2.79954378	     -8.72075837	      0.54518623	      0.00951529	    -45.86709057	    -10.04911872	     -7.49999987	     24.52106938	      0.25030896	    -13.07805232	      3.89281915	      0.06794251	    -32.97576669	     -6.07041940	     -7.49999987	    -28.18945775	      0.35473005	     -2.15250942	      2.30825523	     -8.34740398	     -5.18232143	     28.96557647	     92.63715552	      0.37153475	     -8.93677717	    -30.91060836	     35.65489594	     84.37821887
      2.80000000	     -6.09228627	      3.08178321	     -4.97488972	      0.21308850	      1.33349844	     -0.02427673	     24.83741547	     -2.71591097	     -7.53938125	      0.70674769	      0.01233507	    -44.76291371	    -10.49301109	     -7.49999987	     23.24177940	     -0.07498233	    -12.97747040	      3.81333893	      0.06655532	    -32.69045729	     -6.89065487	     -7.49999987	    -27.30118965	      0.12803191	     -2.03186624	      1.14188340	     -8.71129000	     -5.69157436	     31.26382413	     90.15417851	     -1.77201129	     -8.75531361	    -31.85927789	     36.52523193	     82.45690677
      2.81666670	     -5.77130698	      3.12296655	     -5.90839762	      0.21315348	      1.31128295	     -0.02440911	     24.28944941	     -2.61590432	     -6.88840568	      0.81214597	      0.01417462	    -42.78842127	    -10.73763367	     -7.49999987	     22.07043583	     -0.53889120	    -12.79492274	      3.62423944	      0.06325491	    -32.18036136	     -7.59800525	     -7.49999987	    -26.17873212	      0.04931945	     -1.97267658	      0.20421318	     -8.66534633	     -7.97398559	     32.65475055	     93.50727265	     -3.72984221	     -7.81998344	    -35.36169851	     37.06105198	     85.46118810
